<?xml version="1.0" encoding="utf-8"?>
<!-- Generator: Adobe Illustrator 18.1.1, SVG Export Plug-In . SVG Version: 6.00 Build 0)  -->
<svg version="1.1" id="Layer_1" xmlns="http://www.w3.org/2000/svg" xmlns:xlink="http://www.w3.org/1999/xlink" x="0px" y="0px"
	 viewBox="0 0 59.5 13.1" enable-background="new 0 0 59.5 13.1" xml:space="preserve">
<g>
	<g>
		<path fill="#CDCFCF" d="M13.4,10.5c0.5,0.3,1.5,0.6,2.3,0.6c0.7,0,1.1-0.4,1.1-0.8s-0.3-0.7-1.1-1.1c-1-0.5-1.9-1.2-1.9-2.3
			c0-1.8,1.6-3.1,4-3.1c1,0,1.8,0.2,2.3,0.5l-0.6,1.8c-0.4-0.2-1-0.4-1.8-0.4c-0.7,0-1.2,0.3-1.2,0.8c0,0.4,0.4,0.7,1.1,1
			c1,0.5,2,1.2,2,2.4c0,2-1.7,3.2-4.1,3.2c-1.1,0-2.2-0.3-2.7-0.7L13.4,10.5z"/>
		<path fill="#CDCFCF" d="M29.9,3.9l-1.1,6c-0.2,1.1-0.3,2.1-0.5,2.9h-2.3l0.2-1.4l0,0c-0.9,1.2-2,1.6-3.1,1.6
			c-1.4,0-2.3-0.8-2.3-2.5c0-0.5,0.1-1,0.2-1.6l0.9-5h2.6l-0.9,4.8c-0.1,0.4-0.1,0.8-0.1,1.2c0,0.6,0.2,1,0.9,1
			c0.9,0,1.8-1.1,2.1-2.8l0.8-4.2C27.4,3.9,29.9,3.9,29.9,3.9z"/>
		<path fill="#CDCFCF" d="M30,12.8l1-5.3c0.3-1.3,0.4-2.8,0.5-3.7h2.3c-0.1,0.6-0.2,1.2-0.3,1.8h0.1c0.6-1.2,1.6-2,2.8-2
			c0.2,0,0.3,0,0.5,0l-0.5,2.5c-0.1,0-0.3,0-0.4,0c-1.7,0-2.4,1.5-2.8,3.3l-0.6,3.4H30z"/>
		<path fill="#CDCFCF" d="M40.1,3.9l0.4,4c0.1,1.1,0.2,1.7,0.2,2.4h0.1c0.2-0.6,0.5-1.3,1-2.4l1.8-4h2.9l-5,9H39l-1.5-9
			C37.4,3.9,40.1,3.9,40.1,3.9z"/>
		<path fill="#CDCFCF" d="M45.7,12.8l1.7-9H50l-1.7,9H45.7z M47.7,1.5c0-0.9,0.7-1.5,1.5-1.5s1.3,0.5,1.3,1.3c0,0.9-0.7,1.5-1.5,1.5
			C48.3,2.7,47.7,2.3,47.7,1.5z"/>
		<path fill="#CDCFCF" d="M59.5,7.4c0,3.3-2.2,5.7-5.4,5.7c-2.2,0-3.8-1.5-3.8-3.7c0-3.2,2.1-5.7,5.4-5.7
			C58.1,3.7,59.5,5.4,59.5,7.4z M53.1,9.3c0,1,0.5,1.7,1.4,1.7c1.4,0,2.2-2.1,2.2-3.7c0-0.8-0.3-1.7-1.4-1.7
			C53.8,5.7,53.1,7.9,53.1,9.3z"/>
	</g>
	<g>
		<path fill="#CDCFCF" d="M2.6,4.7l0.1-0.5h4.5C7.4,4,7.6,3.7,7.8,3.5H2.1L1.9,4.3C2.1,4.4,2.4,4.5,2.6,4.7z"/>
		<g>
			<path fill="#CDCFCF" d="M13,0C10,1.3,6.3,6.3,5.2,8.3C4.7,7.5,2.1,5,1.4,5.4C0.9,5.8,0.1,7,0,7.9c1.8,0.2,4.6,2.4,5.3,3.6
				c1.6-2.8,5-6.1,6.9-7.1L13,0z"/>
			<path fill="#CDCFCF" d="M10,7.1l-1.1,5H5.6c-0.1,0.2-0.2,0.4-0.3,0.5c-0.1-0.2-0.2-0.4-0.4-0.5H1l0.5-2.5C1.3,9.6,1.2,9.5,1,9.4
				l-0.6,3.5h9.3l1.2-6.3C10.5,6.7,10.3,6.9,10,7.1z"/>
		</g>
	</g>
</g>
</svg>
